<?xml version="1.0" encoding="utf-8"?>
<!-- Generator: Adobe Illustrator 24.1.1, SVG Export Plug-In . SVG Version: 6.00 Build 0)  -->
<svg version="1.1" id="Camada_1" xmlns="http://www.w3.org/2000/svg" xmlns:xlink="http://www.w3.org/1999/xlink" x="0px" y="0px"
	 viewBox="0 0 512 512" style="enable-background:new 0 0 512 512;" xml:space="preserve">
<style type="text/css">
	.st0{fill-rule:evenodd;clip-rule:evenodd;fill:#FFFFFF;}
	.st1{fill:#FFFFFF;}
</style>
<path class="st0" d="M461.6,303.5v152.8c0,19.7-16,35.7-35.7,35.7H305.8c-5.5,0-10,4.5-10,10s4.5,10,10,10h120.2
	c30.7,0,55.7-25,55.7-72.4V207.2c-5.8-0.6-4.5-0.5-10-0.5H130.4l327.7-94.9c2.5-0.7,4.7-2.5,6-4.8c1.3-2.3,1.6-5.1,0.8-7.6
	l-17.1-59.2C440.9,16.5,418.9,0,394.3,0c-5.2,0-10.4,0.7-15.4,2.2L71.2,91.3c-14.2,4.1-26,13.6-33.2,26.6
	c-7.2,13.1-8.9,28.1-4.8,42.3L50,218.1v238.3c0,30.7,25,55.7,55.6,55.7h120.2c5.5,0,10-4.5,10-10s-4.5-10-10-10H105.6
	C86,492,70,476,70,456.3V303.5h51.2h0h0h78.3h0h0h78.3h0h0h78.3h0 M295.3,285.3l42.5-58.6H393l-42.5,58.6H295.3z M216.9,285.3
	l42.5-58.6h55.3l-42.5,58.6H216.9z M138.5,285.3l42.5-58.6h55.3l-42.5,58.6H138.5z M175.7,170.8l-71.1-68.3L157.9,87
	c0.4,0.5,0.8,1.1,1.3,1.5l71.1,68.3L177,172.3C176.7,171.8,176.2,171.3,175.7,170.8z M309.7,45l71.1,68.3l-53.3,15.4
	c-0.4-0.5-0.8-1.1-1.3-1.5l-71.1-68.3l53.3-15.4C308.8,44,309.2,44.5,309.7,45z M234.5,66.8l71.1,68.3l-53.3,15.4
	c-0.4-0.5-0.8-1.1-1.3-1.5l-71.1-68.3l53.3-15.4C233.5,65.8,234,66.3,234.5,66.8z M384.4,21.4c3.2-0.9,6.5-1.4,9.8-1.4
	c15.8,0,29.9,10.6,34.3,25.7l14.4,49.6l-40.1,11.6c-0.4-0.5-0.8-1.1-1.3-1.5l-71.1-68.3L384.4,21.4z M55.5,127.6
	c4.6-8.4,12.2-14.4,21.3-17.1l5.9-1.7c0.4,0.5,0.8,1.1,1.3,1.5l71.1,68.3l-88.3,25.6l-14.4-49.6C49.8,145.6,50.9,136,55.5,127.6z
	 M70,226.7h88l-42.5,58.6H70V226.7z M373.6,285.3l42.5-58.6h45.5v58.6H373.6z"/>
<path class="st0" d="M265.8,492c-5.5,0-10,4.5-10,10s4.5,10,10,10c5.5,0,10-4.5,10-10S271.3,492,265.8,492z"/>
<g>
	<path class="st1" d="M194.8,454.5h-74.5v-10.4l39.4-43.7c5.8-6.6,9.9-12,12.1-16.1c2.2-4.1,3.3-8.4,3.3-12.8
		c0-5.9-1.8-10.8-5.4-14.6s-8.4-5.7-14.4-5.7c-7.2,0-12.8,2-16.8,6.1c-4,4.1-6,9.8-6,17.1h-14.4c0-10.5,3.4-18.9,10.1-25.4
		c6.7-6.5,15.8-9.7,27.1-9.7c10.6,0,18.9,2.8,25.1,8.3c6.1,5.5,9.2,12.9,9.2,22.1c0,11.2-7.1,24.5-21.4,40l-30.5,33h57.1V454.5z"/>
	<path class="st1" d="M265.5,405.9c0,16.9-2.9,29.5-8.7,37.7C251,451.9,242,456,229.7,456c-12.1,0-21.1-4-26.9-12.1
		c-5.8-8-8.9-20.1-9.1-36v-19.3c0-16.7,2.9-29.1,8.7-37.3c5.8-8.1,14.8-12.2,27.2-12.2c12.2,0,21.2,3.9,27,11.8
		c5.8,7.8,8.7,19.9,8.9,36.3V405.9z M251,386.2c0-12.2-1.7-21.2-5.2-26.7c-3.4-5.6-8.9-8.4-16.3-8.4c-7.4,0-12.8,2.8-16.2,8.4
		c-3.4,5.6-5.1,14.1-5.2,25.7v23.1c0,12.3,1.8,21.4,5.3,27.2s9,8.8,16.2,8.8c7.1,0,12.4-2.8,15.9-8.3c3.5-5.5,5.3-14.2,5.4-26.1
		V386.2z"/>
	<path class="st1" d="M315.5,454.5h-14.5v-96.3l-29.1,10.7v-13.1l41.4-15.5h2.3V454.5z"/>
	<path class="st1" d="M410.8,370.4c0,5.7-1.5,10.7-4.5,15.2c-3,4.4-7,7.9-12.1,10.4c5.9,2.6,10.6,6.3,14.1,11.2
		c3.5,4.9,5.2,10.4,5.2,16.6c0,9.8-3.3,17.7-10,23.5c-6.6,5.8-15.4,8.7-26.2,8.7c-10.9,0-19.7-2.9-26.3-8.8
		c-6.6-5.9-9.9-13.7-9.9-23.5c0-6.1,1.7-11.7,5-16.6c3.4-4.9,8-8.7,13.9-11.2c-5.1-2.5-9-6-11.9-10.4c-2.9-4.4-4.4-9.5-4.4-15.1
		c0-9.6,3.1-17.2,9.2-22.8c6.1-5.6,14.2-8.4,24.3-8.4c10,0,18.1,2.8,24.3,8.4C407.7,353.2,410.8,360.8,410.8,370.4z M399,423.4
		c0-6.4-2-11.5-6.1-15.5c-4-4-9.3-6-15.8-6c-6.5,0-11.7,2-15.7,5.9c-3.9,4-5.9,9.2-5.9,15.6s1.9,11.5,5.7,15.2
		c3.8,3.7,9.2,5.5,16,5.5c6.8,0,12.1-1.9,15.9-5.6C397,434.9,399,429.8,399,423.4z M377.2,351c-5.7,0-10.3,1.8-13.8,5.3
		s-5.3,8.3-5.3,14.3c0,5.8,1.7,10.5,5.2,14c3.5,3.6,8.1,5.3,13.9,5.3s10.4-1.8,13.9-5.3c3.5-3.6,5.2-8.2,5.2-14
		c0-5.8-1.8-10.5-5.4-14.1C387.3,352.9,382.8,351,377.2,351z"/>
</g>
</svg>
