<?xml version="1.0" encoding="utf-8"?>
<!-- Generator: Adobe Illustrator 24.1.1, SVG Export Plug-In . SVG Version: 6.00 Build 0)  -->
<svg version="1.1" id="Camada_1" xmlns="http://www.w3.org/2000/svg" xmlns:xlink="http://www.w3.org/1999/xlink" x="0px" y="0px"
	 viewBox="0 0 512 512" style="enable-background:new 0 0 512 512;" xml:space="preserve">
<style type="text/css">
	.st0{fill-rule:evenodd;clip-rule:evenodd;fill:#FFFFFF;}
	.st1{fill:#FFFFFF;}
</style>
<path class="st0" d="M461.6,303.5v152.8c0,19.7-16,35.7-35.7,35.7H305.8c-5.5,0-10,4.5-10,10s4.5,10,10,10h120.2
	c30.7,0,55.7-25,55.7-72.4V207.2c-5.8-0.6-4.5-0.5-10-0.5H130.4l327.7-94.9c2.5-0.7,4.7-2.5,6-4.8c1.3-2.3,1.6-5.1,0.8-7.6
	l-17.1-59.2C440.9,16.5,418.9,0,394.3,0c-5.2,0-10.4,0.7-15.4,2.2L71.2,91.3c-14.2,4.1-26,13.6-33.2,26.6
	c-7.2,13.1-8.9,28.1-4.8,42.3L50,218.1v238.3c0,30.7,25,55.7,55.6,55.7h120.2c5.5,0,10-4.5,10-10s-4.5-10-10-10H105.6
	C86,492,70,476,70,456.3V303.5h51.2h0h0h78.3h0h0h78.3h0h0h78.3h0 M295.3,285.3l42.5-58.6H393l-42.5,58.6H295.3z M216.9,285.3
	l42.5-58.6h55.3l-42.5,58.6H216.9z M138.5,285.3l42.5-58.6h55.3l-42.5,58.6H138.5z M175.7,170.8l-71.1-68.3L157.9,87
	c0.4,0.5,0.8,1.1,1.3,1.5l71.1,68.3L177,172.3C176.7,171.8,176.2,171.3,175.7,170.8z M309.7,45l71.1,68.3l-53.3,15.4
	c-0.4-0.5-0.8-1.1-1.3-1.5l-71.1-68.3l53.3-15.4C308.8,44,309.2,44.5,309.7,45z M234.5,66.8l71.1,68.3l-53.3,15.4
	c-0.4-0.5-0.8-1.1-1.3-1.5l-71.1-68.3l53.3-15.4C233.5,65.8,234,66.3,234.5,66.8z M384.4,21.4c3.2-0.9,6.5-1.4,9.8-1.4
	c15.8,0,29.9,10.6,34.3,25.7l14.4,49.6l-40.1,11.6c-0.4-0.5-0.8-1.1-1.3-1.5l-71.1-68.3L384.4,21.4z M55.5,127.6
	c4.6-8.4,12.2-14.4,21.3-17.1l5.9-1.7c0.4,0.5,0.8,1.1,1.3,1.5l71.1,68.3l-88.3,25.6l-14.4-49.6C49.8,145.6,50.9,136,55.5,127.6z
	 M70,226.7h88l-42.5,58.6H70V226.7z M373.6,285.3l42.5-58.6h45.5v58.6H373.6z"/>
<path class="st0" d="M265.8,492c-5.5,0-10,4.5-10,10s4.5,10,10,10c5.5,0,10-4.5,10-10S271.3,492,265.8,492z"/>
<g>
	<path class="st1" d="M192,450.8h-74.5v-10.4l39.4-43.7c5.8-6.6,9.9-12,12.1-16.1c2.2-4.1,3.3-8.4,3.3-12.8c0-5.9-1.8-10.8-5.4-14.6
		s-8.4-5.7-14.4-5.7c-7.2,0-12.8,2-16.8,6.1c-4,4.1-6,9.8-6,17.1h-14.4c0-10.5,3.4-18.9,10.1-25.4c6.7-6.5,15.8-9.7,27.1-9.7
		c10.6,0,18.9,2.8,25.1,8.3c6.1,5.5,9.2,12.9,9.2,22.1c0,11.2-7.1,24.5-21.4,40l-30.5,33H192V450.8z"/>
	<path class="st1" d="M262.6,402.3c0,16.9-2.9,29.5-8.7,37.7c-5.8,8.2-14.8,12.3-27.1,12.3c-12.1,0-21.1-4-26.9-12.1
		c-5.8-8-8.9-20.1-9.1-36V385c0-16.7,2.9-29.1,8.7-37.3c5.8-8.1,14.8-12.2,27.2-12.2c12.2,0,21.2,3.9,27,11.8
		c5.8,7.8,8.7,19.9,8.9,36.3V402.3z M248.2,382.6c0-12.2-1.7-21.2-5.2-26.7c-3.4-5.6-8.9-8.4-16.3-8.4c-7.4,0-12.8,2.8-16.2,8.4
		c-3.4,5.6-5.1,14.1-5.2,25.7v23.1c0,12.3,1.8,21.4,5.4,27.2c3.6,5.9,9,8.8,16.2,8.8c7.1,0,12.4-2.8,15.9-8.3
		c3.5-5.5,5.3-14.2,5.4-26.1V382.6z"/>
	<path class="st1" d="M312.6,450.8h-14.5v-96.3L269,365.2v-13.1l41.4-15.5h2.3V450.8z"/>
	<path class="st1" d="M345.6,393.8l5.8-56.7h58.3v13.4h-46l-3.4,31c5.6-3.3,11.9-4.9,19-4.9c10.4,0,18.6,3.4,24.7,10.3
		c6.1,6.8,9.1,16.1,9.1,27.8c0,11.7-3.2,20.9-9.5,27.7c-6.3,6.7-15.2,10.1-26.5,10.1c-10,0-18.3-2.8-24.6-8.4
		c-6.4-5.6-10-13.3-10.9-23.1h13.7c0.9,6.5,3.2,11.4,7,14.7c3.7,3.3,8.7,5,14.8,5c6.7,0,12-2.3,15.8-6.9c3.8-4.6,5.7-10.9,5.7-19
		c0-7.6-2.1-13.7-6.2-18.3c-4.1-4.6-9.6-6.9-16.5-6.9c-6.3,0-11.2,1.4-14.8,4.1l-3.8,3.1L345.6,393.8z"/>
</g>
</svg>
