<?xml version="1.0" encoding="utf-8"?>
<!-- Generator: Adobe Illustrator 24.1.1, SVG Export Plug-In . SVG Version: 6.00 Build 0)  -->
<svg version="1.1" id="Camada_1" xmlns="http://www.w3.org/2000/svg" xmlns:xlink="http://www.w3.org/1999/xlink" x="0px" y="0px"
	 viewBox="0 0 512 512" style="enable-background:new 0 0 512 512;" xml:space="preserve">
<style type="text/css">
	.st0{fill-rule:evenodd;clip-rule:evenodd;fill:#FFFFFF;}
	.st1{fill:#FFFFFF;}
</style>
<path class="st0" d="M461.6,303.5v152.8c0,19.7-16,35.7-35.7,35.7H305.8c-5.5,0-10,4.5-10,10s4.5,10,10,10h120.2
	c30.7,0,55.7-25,55.7-72.4V207.2c-5.8-0.6-4.5-0.5-10-0.5H130.4l327.7-94.9c2.5-0.7,4.7-2.5,6-4.8c1.3-2.3,1.6-5.1,0.8-7.6
	l-17.1-59.2C440.9,16.5,418.9,0,394.3,0c-5.2,0-10.4,0.7-15.4,2.2L71.2,91.3c-14.2,4.1-26,13.6-33.2,26.6
	c-7.2,13.1-8.9,28.1-4.8,42.3L50,218.1v238.3c0,30.7,25,55.7,55.6,55.7h120.2c5.5,0,10-4.5,10-10s-4.5-10-10-10H105.6
	C86,492,70,476,70,456.3V303.5h51.2h0h0h78.3h0h0h78.3h0h0h78.3h0 M295.3,285.3l42.5-58.6H393l-42.5,58.6H295.3z M216.9,285.3
	l42.5-58.6h55.3l-42.5,58.6H216.9z M138.5,285.3l42.5-58.6h55.3l-42.5,58.6H138.5z M175.7,170.8l-71.1-68.3L157.9,87
	c0.4,0.5,0.8,1.1,1.3,1.5l71.1,68.3L177,172.3C176.7,171.8,176.2,171.3,175.7,170.8z M309.7,45l71.1,68.3l-53.3,15.4
	c-0.4-0.5-0.8-1.1-1.3-1.5l-71.1-68.3l53.3-15.4C308.8,44,309.2,44.5,309.7,45z M234.5,66.8l71.1,68.3l-53.3,15.4
	c-0.4-0.5-0.8-1.1-1.3-1.5l-71.1-68.3l53.3-15.4C233.5,65.8,234,66.3,234.5,66.8z M384.4,21.4c3.2-0.9,6.5-1.4,9.8-1.4
	c15.8,0,29.9,10.6,34.3,25.7l14.4,49.6l-40.1,11.6c-0.4-0.5-0.8-1.1-1.3-1.5l-71.1-68.3L384.4,21.4z M55.5,127.6
	c4.6-8.4,12.2-14.4,21.3-17.1l5.9-1.7c0.4,0.5,0.8,1.1,1.3,1.5l71.1,68.3l-88.3,25.6l-14.4-49.6C49.8,145.6,50.9,136,55.5,127.6z
	 M70,226.7h88l-42.5,58.6H70V226.7z M373.6,285.3l42.5-58.6h45.5v58.6H373.6z"/>
<path class="st0" d="M265.8,492c-5.5,0-10,4.5-10,10s4.5,10,10,10c5.5,0,10-4.5,10-10S271.3,492,265.8,492z"/>
<g>
	<path class="st1" d="M194.4,448.6h-75.9v-10.6l40.1-44.5c5.9-6.7,10-12.2,12.3-16.4c2.3-4.2,3.4-8.6,3.4-13.1c0-6-1.8-11-5.5-14.9
		s-8.5-5.8-14.6-5.8c-7.3,0-13,2.1-17.1,6.2c-4.1,4.2-6.1,10-6.1,17.4h-14.7c0-10.7,3.4-19.3,10.3-25.8c6.9-6.6,16.1-9.9,27.6-9.9
		c10.8,0,19.3,2.8,25.5,8.5c6.3,5.6,9.4,13.2,9.4,22.5c0,11.4-7.3,25-21.8,40.7l-31,33.6h58.1V448.6z"/>
	<path class="st1" d="M266.3,399.3c0,17.2-2.9,30-8.8,38.4c-5.9,8.4-15.1,12.6-27.6,12.6c-12.4,0-21.5-4.1-27.4-12.3
		c-5.9-8.2-9-20.4-9.2-36.7v-19.6c0-17,2.9-29.7,8.8-37.9c5.9-8.3,15.1-12.4,27.7-12.4c12.5,0,21.6,4,27.5,12
		c5.9,8,8.9,20.3,9.1,36.9V399.3z M251.6,379.1c0-12.5-1.8-21.5-5.3-27.2c-3.5-5.7-9-8.6-16.6-8.6c-7.5,0-13,2.8-16.5,8.5
		c-3.4,5.7-5.2,14.4-5.3,26.2v23.5c0,12.5,1.8,21.8,5.4,27.7c3.6,6,9.1,8.9,16.5,8.9c7.3,0,12.7-2.8,16.2-8.4
		c3.5-5.6,5.4-14.5,5.5-26.6V379.1z"/>
	<path class="st1" d="M317.2,448.6h-14.8v-98.1l-29.7,10.9v-13.4l42.2-15.8h2.3V448.6z"/>
	<path class="st1" d="M365.4,383.6h11.1c6.9-0.1,12.4-1.9,16.4-5.5c4-3.6,6-8.4,6-14.4c0-13.6-6.8-20.4-20.3-20.4
		c-6.4,0-11.4,1.8-15.2,5.4c-3.8,3.6-5.7,8.4-5.7,14.4h-14.7c0-9.2,3.4-16.8,10.1-22.9c6.7-6.1,15.2-9.1,25.6-9.1
		c10.9,0,19.5,2.9,25.7,8.7s9.3,13.8,9.3,24.1c0,5-1.6,9.9-4.9,14.6c-3.3,4.7-7.7,8.2-13.3,10.6c6.4,2,11.3,5.4,14.8,10
		c3.5,4.7,5.2,10.4,5.2,17.1c0,10.4-3.4,18.6-10.2,24.7s-15.6,9.1-26.5,9.1c-10.9,0-19.7-2.9-26.5-8.8c-6.8-5.9-10.2-13.7-10.2-23.3
		h14.8c0,6.1,2,11,6,14.6c4,3.7,9.3,5.5,16,5.5c7.1,0,12.5-1.9,16.3-5.6c3.8-3.7,5.6-9,5.6-16c0-6.7-2.1-11.9-6.2-15.5
		c-4.1-3.6-10.1-5.5-17.9-5.6h-11.1V383.6z"/>
</g>
</svg>
